<svg xmlns="http://www.w3.org/2000/svg" xmlns:xlink="http://www.w3.org/1999/xlink" viewBox="0 0 1920 1080"><defs><style>.a,.b{stroke-miterlimit:10;}.a{fill:url(#a);stroke:url(#b);}.b{fill:none;stroke:#8eed20;stroke-width:4px;}.c{fill:#8eed20;}</style><radialGradient id="a" cx="957" cy="544.5" r="798.56" gradientUnits="userSpaceOnUse"><stop offset="0" stop-color="#8cc63f"/><stop offset="0.35" stop-color="#5d7f30"/><stop offset="0.65" stop-color="#394924"/><stop offset="0.88" stop-color="#22271d"/><stop offset="1" stop-color="#1a1a1a"/></radialGradient><radialGradient id="b" cx="957" cy="544.5" r="799.04" gradientUnits="userSpaceOnUse"><stop offset="0" stop-color="#8cc63f"/><stop offset="0.12" stop-color="#88bf3e"/><stop offset="0.28" stop-color="#7bac3a"/><stop offset="0.48" stop-color="#678e33"/><stop offset="0.69" stop-color="#4a632a"/><stop offset="0.93" stop-color="#262c1e"/><stop offset="1" stop-color="#1a1a1a"/></radialGradient></defs><title>free-awesome-greenBG</title><rect class="a" x="-24" y="-15" width="1962" height="1119"/><polygon class="b" points="391.29 114 251.1 114 181 235.41 251.1 356.82 391.29 356.82 461.39 235.41 391.29 114"/><polygon class="b" points="180.29 -7 40.1 -7 -30 114.41 40.1 235.82 180.29 235.82 250.39 114.41 180.29 -7"/><polygon class="b" points="603.29 -7 463.1 -7 393 114.41 463.1 235.82 603.29 235.82 673.39 114.41 603.29 -7"/><polygon class="b" points="390.29 357 250.1 357 180 478.41 250.1 599.82 390.29 599.82 460.39 478.41 390.29 357"/><polygon class="b" points="179.29 236 39.1 236 -31 357.41 39.1 478.82 179.29 478.82 249.39 357.41 179.29 236"/><polygon class="b" points="602.29 236 462.1 236 392 357.41 462.1 478.82 602.29 478.82 672.39 357.41 602.29 236"/><polygon class="b" points="1718.29 618 1578.1 618 1508 739.41 1578.1 860.82 1718.29 860.82 1788.39 739.41 1718.29 618"/><polygon class="b" points="1507.29 497 1367.1 497 1297 618.41 1367.1 739.82 1507.29 739.82 1577.39 618.41 1507.29 497"/><polygon class="b" points="1930.29 497 1790.1 497 1720 618.41 1790.1 739.82 1930.29 739.82 2000.39 618.41 1930.29 497"/><polygon class="b" points="1717.29 861 1577.1 861 1507 982.41 1577.1 1103.82 1717.29 1103.82 1787.39 982.41 1717.29 861"/><polygon class="b" points="1506.29 740 1366.1 740 1296 861.41 1366.1 982.82 1506.29 982.82 1576.39 861.41 1506.29 740"/><polygon class="b" points="1929.29 740 1789.1 740 1719 861.41 1789.1 982.82 1929.29 982.82 1999.39 861.41 1929.29 740"/><polygon class="c" points="1981 -61 997 515 1981 -46.48 1981 -61"/><polygon class="c" points="-48.13 1094.24 944.19 544.75 -48 1080.15 -48.13 1094.24"/><polygon class="c" points="288.5 1469.41 960.5 555.59 282.74 1456.55 288.5 1469.41"/><polygon class="c" points="1554.68 -485.9 988.32 496.9 1561.84 -473.76 1554.68 -485.9"/></svg>