<svg xmlns="http://www.w3.org/2000/svg" version="1.1" xmlnsXlink="http://www.w3.org/1999/xlink" xmlnsSvgjs="http://svgjs.dev/svgjs" width="1440" height="560" preserveAspectRatio="none" viewBox="0 0 1440 560"><g mask="url(&quot;#SvgjsMask1028&quot;)" fill="none"><rect width="1440" height="560" x="0" y="0" fill="rgba(27, 81, 34, 1)"></rect><path d="M24.4 165.18L89.35 202.68L89.35 277.68L24.4 315.18L-40.55 277.68L-40.55 202.68zM89.35 502.68L154.31 540.18L154.31 615.18L89.35 652.68L24.4 615.18L24.4 540.18zM219.26 52.68L284.21 90.18L284.21 165.18L219.26 202.68L154.31 165.18L154.31 90.18zM154.31 390.18L219.26 427.68L219.26 502.68L154.31 540.18L89.35 502.68L89.35 427.68zM414.12 -59.82L479.08 -22.32L479.08 52.68L414.12 90.18L349.17 52.68L349.17 -22.32zM414.12 165.18L479.08 202.68L479.08 277.68L414.12 315.18L349.17 277.68L349.17 202.68zM414.12 390.18L479.08 427.68L479.08 502.68L414.12 540.18L349.17 502.68L349.17 427.68zM544.03 165.18L608.98 202.68L608.98 277.68L544.03 315.18L479.08 277.68L479.08 202.68zM673.94 -59.82L738.89 -22.32L738.89 52.68L673.94 90.18L608.98 52.68L608.98 -22.32zM738.89 52.68L803.85 90.18L803.85 165.18L738.89 202.68L673.94 165.18L673.94 90.18zM803.84 -59.82L868.8 -22.32L868.8 52.68L803.84 90.18L738.89 52.68L738.89 -22.32zM803.84 165.18L868.8 202.68L868.8 277.68L803.84 315.18L738.89 277.68L738.89 202.68zM998.71 52.68L1063.66 90.18L1063.66 165.18L998.71 202.68L933.75 165.18L933.75 90.18zM998.71 277.68L1063.66 315.18L1063.66 390.18L998.71 427.68L933.75 390.18L933.75 315.18zM933.75 390.18L998.71 427.68L998.71 502.68L933.75 540.18L868.8 502.68L868.8 427.68zM1063.66 165.18L1128.61 202.68L1128.61 277.68L1063.66 315.18L998.71 277.68L998.71 202.68zM1128.61 277.68L1193.57 315.18L1193.57 390.18L1128.61 427.68L1063.66 390.18L1063.66 315.18zM1193.57 -59.82L1258.52 -22.32L1258.52 52.68L1193.57 90.18L1128.61 52.68L1128.61 -22.32zM1193.57 165.18L1258.52 202.68L1258.52 277.68L1193.57 315.18L1128.61 277.68L1128.61 202.68zM1323.48 165.18L1388.43 202.68L1388.43 277.68L1323.48 315.18L1258.52 277.68L1258.52 202.68zM1453.38 -59.82L1518.34 -22.32L1518.34 52.68L1453.38 90.18L1388.43 52.68L1388.43 -22.32zM1453.38 165.18L1518.34 202.68L1518.34 277.68L1453.38 315.18L1388.43 277.68L1388.43 202.68z" stroke="rgba(33, 99, 42, 1)" stroke-width="2"></path><path d="M16.9 165.18 a7.5 7.5 0 1 0 15 0 a7.5 7.5 0 1 0 -15 0zM81.85 202.68 a7.5 7.5 0 1 0 15 0 a7.5 7.5 0 1 0 -15 0zM81.85 277.68 a7.5 7.5 0 1 0 15 0 a7.5 7.5 0 1 0 -15 0zM16.9 315.18 a7.5 7.5 0 1 0 15 0 a7.5 7.5 0 1 0 -15 0zM-48.05 277.68 a7.5 7.5 0 1 0 15 0 a7.5 7.5 0 1 0 -15 0zM-48.05 202.68 a7.5 7.5 0 1 0 15 0 a7.5 7.5 0 1 0 -15 0zM81.85 502.68 a7.5 7.5 0 1 0 15 0 a7.5 7.5 0 1 0 -15 0zM146.81 540.18 a7.5 7.5 0 1 0 15 0 a7.5 7.5 0 1 0 -15 0zM146.81 615.18 a7.5 7.5 0 1 0 15 0 a7.5 7.5 0 1 0 -15 0zM81.85 652.68 a7.5 7.5 0 1 0 15 0 a7.5 7.5 0 1 0 -15 0zM16.9 615.18 a7.5 7.5 0 1 0 15 0 a7.5 7.5 0 1 0 -15 0zM16.9 540.18 a7.5 7.5 0 1 0 15 0 a7.5 7.5 0 1 0 -15 0zM211.76 52.68 a7.5 7.5 0 1 0 15 0 a7.5 7.5 0 1 0 -15 0zM276.71 90.18 a7.5 7.5 0 1 0 15 0 a7.5 7.5 0 1 0 -15 0zM276.71 165.18 a7.5 7.5 0 1 0 15 0 a7.5 7.5 0 1 0 -15 0zM211.76 202.68 a7.5 7.5 0 1 0 15 0 a7.5 7.5 0 1 0 -15 0zM146.81 165.18 a7.5 7.5 0 1 0 15 0 a7.5 7.5 0 1 0 -15 0zM146.81 90.18 a7.5 7.5 0 1 0 15 0 a7.5 7.5 0 1 0 -15 0zM146.81 390.18 a7.5 7.5 0 1 0 15 0 a7.5 7.5 0 1 0 -15 0zM211.76 427.68 a7.5 7.5 0 1 0 15 0 a7.5 7.5 0 1 0 -15 0zM211.76 502.68 a7.5 7.5 0 1 0 15 0 a7.5 7.5 0 1 0 -15 0zM81.85 427.68 a7.5 7.5 0 1 0 15 0 a7.5 7.5 0 1 0 -15 0zM406.62 -59.82 a7.5 7.5 0 1 0 15 0 a7.5 7.5 0 1 0 -15 0zM471.58 -22.32 a7.5 7.5 0 1 0 15 0 a7.5 7.5 0 1 0 -15 0zM471.58 52.68 a7.5 7.5 0 1 0 15 0 a7.5 7.5 0 1 0 -15 0zM406.62 90.18 a7.5 7.5 0 1 0 15 0 a7.5 7.5 0 1 0 -15 0zM341.67 52.68 a7.5 7.5 0 1 0 15 0 a7.5 7.5 0 1 0 -15 0zM341.67 -22.32 a7.5 7.5 0 1 0 15 0 a7.5 7.5 0 1 0 -15 0zM406.62 165.18 a7.5 7.5 0 1 0 15 0 a7.5 7.5 0 1 0 -15 0zM471.58 202.68 a7.5 7.5 0 1 0 15 0 a7.5 7.5 0 1 0 -15 0zM471.58 277.68 a7.5 7.5 0 1 0 15 0 a7.5 7.5 0 1 0 -15 0zM406.62 315.18 a7.5 7.5 0 1 0 15 0 a7.5 7.5 0 1 0 -15 0zM341.67 277.68 a7.5 7.5 0 1 0 15 0 a7.5 7.5 0 1 0 -15 0zM341.67 202.68 a7.5 7.5 0 1 0 15 0 a7.5 7.5 0 1 0 -15 0zM406.62 390.18 a7.5 7.5 0 1 0 15 0 a7.5 7.5 0 1 0 -15 0zM471.58 427.68 a7.5 7.5 0 1 0 15 0 a7.5 7.5 0 1 0 -15 0zM471.58 502.68 a7.5 7.5 0 1 0 15 0 a7.5 7.5 0 1 0 -15 0zM406.62 540.18 a7.5 7.5 0 1 0 15 0 a7.5 7.5 0 1 0 -15 0zM341.67 502.68 a7.5 7.5 0 1 0 15 0 a7.5 7.5 0 1 0 -15 0zM341.67 427.68 a7.5 7.5 0 1 0 15 0 a7.5 7.5 0 1 0 -15 0zM536.53 165.18 a7.5 7.5 0 1 0 15 0 a7.5 7.5 0 1 0 -15 0zM601.48 202.68 a7.5 7.5 0 1 0 15 0 a7.5 7.5 0 1 0 -15 0zM601.48 277.68 a7.5 7.5 0 1 0 15 0 a7.5 7.5 0 1 0 -15 0zM536.53 315.18 a7.5 7.5 0 1 0 15 0 a7.5 7.5 0 1 0 -15 0zM666.44 -59.82 a7.5 7.5 0 1 0 15 0 a7.5 7.5 0 1 0 -15 0zM731.39 -22.32 a7.5 7.5 0 1 0 15 0 a7.5 7.5 0 1 0 -15 0zM731.39 52.68 a7.5 7.5 0 1 0 15 0 a7.5 7.5 0 1 0 -15 0zM666.44 90.18 a7.5 7.5 0 1 0 15 0 a7.5 7.5 0 1 0 -15 0zM601.48 52.68 a7.5 7.5 0 1 0 15 0 a7.5 7.5 0 1 0 -15 0zM601.48 -22.32 a7.5 7.5 0 1 0 15 0 a7.5 7.5 0 1 0 -15 0zM796.35 90.18 a7.5 7.5 0 1 0 15 0 a7.5 7.5 0 1 0 -15 0zM796.35 165.18 a7.5 7.5 0 1 0 15 0 a7.5 7.5 0 1 0 -15 0zM731.39 202.68 a7.5 7.5 0 1 0 15 0 a7.5 7.5 0 1 0 -15 0zM666.44 165.18 a7.5 7.5 0 1 0 15 0 a7.5 7.5 0 1 0 -15 0zM796.34 -59.82 a7.5 7.5 0 1 0 15 0 a7.5 7.5 0 1 0 -15 0zM861.3 -22.32 a7.5 7.5 0 1 0 15 0 a7.5 7.5 0 1 0 -15 0zM861.3 52.68 a7.5 7.5 0 1 0 15 0 a7.5 7.5 0 1 0 -15 0zM796.34 90.18 a7.5 7.5 0 1 0 15 0 a7.5 7.5 0 1 0 -15 0zM796.34 165.18 a7.5 7.5 0 1 0 15 0 a7.5 7.5 0 1 0 -15 0zM861.3 202.68 a7.5 7.5 0 1 0 15 0 a7.5 7.5 0 1 0 -15 0zM861.3 277.68 a7.5 7.5 0 1 0 15 0 a7.5 7.5 0 1 0 -15 0zM796.34 315.18 a7.5 7.5 0 1 0 15 0 a7.5 7.5 0 1 0 -15 0zM731.39 277.68 a7.5 7.5 0 1 0 15 0 a7.5 7.5 0 1 0 -15 0zM991.21 52.68 a7.5 7.5 0 1 0 15 0 a7.5 7.5 0 1 0 -15 0zM1056.16 90.18 a7.5 7.5 0 1 0 15 0 a7.5 7.5 0 1 0 -15 0zM1056.16 165.18 a7.5 7.5 0 1 0 15 0 a7.5 7.5 0 1 0 -15 0zM991.21 202.68 a7.5 7.5 0 1 0 15 0 a7.5 7.5 0 1 0 -15 0zM926.25 165.18 a7.5 7.5 0 1 0 15 0 a7.5 7.5 0 1 0 -15 0zM926.25 90.18 a7.5 7.5 0 1 0 15 0 a7.5 7.5 0 1 0 -15 0zM991.21 277.68 a7.5 7.5 0 1 0 15 0 a7.5 7.5 0 1 0 -15 0zM1056.16 315.18 a7.5 7.5 0 1 0 15 0 a7.5 7.5 0 1 0 -15 0zM1056.16 390.18 a7.5 7.5 0 1 0 15 0 a7.5 7.5 0 1 0 -15 0zM991.21 427.68 a7.5 7.5 0 1 0 15 0 a7.5 7.5 0 1 0 -15 0zM926.25 390.18 a7.5 7.5 0 1 0 15 0 a7.5 7.5 0 1 0 -15 0zM926.25 315.18 a7.5 7.5 0 1 0 15 0 a7.5 7.5 0 1 0 -15 0zM991.21 502.68 a7.5 7.5 0 1 0 15 0 a7.5 7.5 0 1 0 -15 0zM926.25 540.18 a7.5 7.5 0 1 0 15 0 a7.5 7.5 0 1 0 -15 0zM861.3 502.68 a7.5 7.5 0 1 0 15 0 a7.5 7.5 0 1 0 -15 0zM861.3 427.68 a7.5 7.5 0 1 0 15 0 a7.5 7.5 0 1 0 -15 0zM1121.11 202.68 a7.5 7.5 0 1 0 15 0 a7.5 7.5 0 1 0 -15 0zM1121.11 277.68 a7.5 7.5 0 1 0 15 0 a7.5 7.5 0 1 0 -15 0zM1186.07 315.18 a7.5 7.5 0 1 0 15 0 a7.5 7.5 0 1 0 -15 0zM1186.07 390.18 a7.5 7.5 0 1 0 15 0 a7.5 7.5 0 1 0 -15 0zM1121.11 427.68 a7.5 7.5 0 1 0 15 0 a7.5 7.5 0 1 0 -15 0zM1186.07 -59.82 a7.5 7.5 0 1 0 15 0 a7.5 7.5 0 1 0 -15 0zM1251.02 -22.32 a7.5 7.5 0 1 0 15 0 a7.5 7.5 0 1 0 -15 0zM1251.02 52.68 a7.5 7.5 0 1 0 15 0 a7.5 7.5 0 1 0 -15 0zM1186.07 90.18 a7.5 7.5 0 1 0 15 0 a7.5 7.5 0 1 0 -15 0zM1121.11 52.68 a7.5 7.5 0 1 0 15 0 a7.5 7.5 0 1 0 -15 0zM1121.11 -22.32 a7.5 7.5 0 1 0 15 0 a7.5 7.5 0 1 0 -15 0zM1186.07 165.18 a7.5 7.5 0 1 0 15 0 a7.5 7.5 0 1 0 -15 0zM1251.02 202.68 a7.5 7.5 0 1 0 15 0 a7.5 7.5 0 1 0 -15 0zM1251.02 277.68 a7.5 7.5 0 1 0 15 0 a7.5 7.5 0 1 0 -15 0zM1315.98 165.18 a7.5 7.5 0 1 0 15 0 a7.5 7.5 0 1 0 -15 0zM1380.93 202.68 a7.5 7.5 0 1 0 15 0 a7.5 7.5 0 1 0 -15 0zM1380.93 277.68 a7.5 7.5 0 1 0 15 0 a7.5 7.5 0 1 0 -15 0zM1315.98 315.18 a7.5 7.5 0 1 0 15 0 a7.5 7.5 0 1 0 -15 0zM1445.88 -59.82 a7.5 7.5 0 1 0 15 0 a7.5 7.5 0 1 0 -15 0zM1510.84 -22.32 a7.5 7.5 0 1 0 15 0 a7.5 7.5 0 1 0 -15 0zM1510.84 52.68 a7.5 7.5 0 1 0 15 0 a7.5 7.5 0 1 0 -15 0zM1445.88 90.18 a7.5 7.5 0 1 0 15 0 a7.5 7.5 0 1 0 -15 0zM1380.93 52.68 a7.5 7.5 0 1 0 15 0 a7.5 7.5 0 1 0 -15 0zM1380.93 -22.32 a7.5 7.5 0 1 0 15 0 a7.5 7.5 0 1 0 -15 0zM1445.88 165.18 a7.5 7.5 0 1 0 15 0 a7.5 7.5 0 1 0 -15 0zM1510.84 202.68 a7.5 7.5 0 1 0 15 0 a7.5 7.5 0 1 0 -15 0zM1510.84 277.68 a7.5 7.5 0 1 0 15 0 a7.5 7.5 0 1 0 -15 0zM1445.88 315.18 a7.5 7.5 0 1 0 15 0 a7.5 7.5 0 1 0 -15 0z" fill="rgba(33, 99, 42, 1)"></path><path d="M28.29 -20.25L71.59 4.75L71.59 54.75L28.29 79.75L-15.01 54.75L-15.01 4.75zM71.59 354.75L114.9 379.75L114.9 429.75L71.59 454.75L28.29 429.75L28.29 379.75zM158.2 54.75L201.5 79.75L201.5 129.75L158.2 154.75L114.9 129.75L114.9 79.75zM114.9 129.75L158.2 154.75L158.2 204.75L114.9 229.75L71.59 204.75L71.59 154.75zM114.9 429.75L158.2 454.75L158.2 504.75L114.9 529.75L71.59 504.75L71.59 454.75zM158.2 504.75L201.5 529.75L201.5 579.75L158.2 604.75L114.9 579.75L114.9 529.75zM244.8 54.75L288.11 79.75L288.11 129.75L244.8 154.75L201.5 129.75L201.5 79.75zM201.5 129.75L244.8 154.75L244.8 204.75L201.5 229.75L158.2 204.75L158.2 154.75zM244.8 204.75L288.11 229.75L288.11 279.75L244.8 304.75L201.5 279.75L201.5 229.75zM201.5 279.75L244.8 304.75L244.8 354.75L201.5 379.75L158.2 354.75L158.2 304.75zM244.8 354.75L288.11 379.75L288.11 429.75L244.8 454.75L201.5 429.75L201.5 379.75zM201.5 429.75L244.8 454.75L244.8 504.75L201.5 529.75L158.2 504.75L158.2 454.75zM244.8 504.75L288.11 529.75L288.11 579.75L244.8 604.75L201.5 579.75L201.5 529.75zM331.41 54.75L374.71 79.75L374.71 129.75L331.41 154.75L288.11 129.75L288.11 79.75zM288.11 129.75L331.41 154.75L331.41 204.75L288.11 229.75L244.8 204.75L244.8 154.75zM288.11 279.75L331.41 304.75L331.41 354.75L288.11 379.75L244.8 354.75L244.8 304.75zM331.41 354.75L374.71 379.75L374.71 429.75L331.41 454.75L288.11 429.75L288.11 379.75zM331.41 504.75L374.71 529.75L374.71 579.75L331.41 604.75L288.11 579.75L288.11 529.75zM374.71 -20.25L418.01 4.75L418.01 54.75L374.71 79.75L331.41 54.75L331.41 4.75zM418.01 54.75L461.32 79.75L461.32 129.75L418.01 154.75L374.71 129.75L374.71 79.75zM374.71 129.75L418.01 154.75L418.01 204.75L374.71 229.75L331.41 204.75L331.41 154.75zM418.01 204.75L461.32 229.75L461.32 279.75L418.01 304.75L374.71 279.75L374.71 229.75zM418.01 354.75L461.32 379.75L461.32 429.75L418.01 454.75L374.71 429.75L374.71 379.75zM374.71 429.75L418.01 454.75L418.01 504.75L374.71 529.75L331.41 504.75L331.41 454.75zM461.32 -20.25L504.62 4.75L504.62 54.75L461.32 79.75L418.01 54.75L418.01 4.75zM504.62 54.75L547.92 79.75L547.92 129.75L504.62 154.75L461.32 129.75L461.32 79.75zM504.62 354.75L547.92 379.75L547.92 429.75L504.62 454.75L461.32 429.75L461.32 379.75zM461.32 429.75L504.62 454.75L504.62 504.75L461.32 529.75L418.01 504.75L418.01 454.75zM591.22 54.75L634.52 79.75L634.52 129.75L591.22 154.75L547.92 129.75L547.92 79.75zM547.92 129.75L591.22 154.75L591.22 204.75L547.92 229.75L504.62 204.75L504.62 154.75zM547.92 279.75L591.22 304.75L591.22 354.75L547.92 379.75L504.62 354.75L504.62 304.75zM677.83 54.75L721.13 79.75L721.13 129.75L677.83 154.75L634.52 129.75L634.52 79.75zM677.83 354.75L721.13 379.75L721.13 429.75L677.83 454.75L634.52 429.75L634.52 379.75zM721.13 129.75L764.43 154.75L764.43 204.75L721.13 229.75L677.83 204.75L677.83 154.75zM764.43 204.75L807.74 229.75L807.74 279.75L764.43 304.75L721.13 279.75L721.13 229.75zM721.13 279.75L764.43 304.75L764.43 354.75L721.13 379.75L677.83 354.75L677.83 304.75zM764.43 354.75L807.74 379.75L807.74 429.75L764.43 454.75L721.13 429.75L721.13 379.75zM721.13 429.75L764.43 454.75L764.43 504.75L721.13 529.75L677.83 504.75L677.83 454.75zM764.43 504.75L807.74 529.75L807.74 579.75L764.43 604.75L721.13 579.75L721.13 529.75zM807.74 -20.25L851.04 4.75L851.04 54.75L807.74 79.75L764.43 54.75L764.43 4.75zM851.04 54.75L894.34 79.75L894.34 129.75L851.04 154.75L807.74 129.75L807.74 79.75zM807.74 429.75L851.04 454.75L851.04 504.75L807.74 529.75L764.43 504.75L764.43 454.75zM937.64 54.75L980.95 79.75L980.95 129.75L937.64 154.75L894.34 129.75L894.34 79.75zM894.34 129.75L937.64 154.75L937.64 204.75L894.34 229.75L851.04 204.75L851.04 154.75zM894.34 279.75L937.64 304.75L937.64 354.75L894.34 379.75L851.04 354.75L851.04 304.75zM937.64 354.75L980.95 379.75L980.95 429.75L937.64 454.75L894.34 429.75L894.34 379.75zM980.95 -20.25L1024.25 4.75L1024.25 54.75L980.95 79.75L937.64 54.75L937.64 4.75zM1024.25 54.75L1067.55 79.75L1067.55 129.75L1024.25 154.75L980.95 129.75L980.95 79.75zM1024.25 204.75L1067.55 229.75L1067.55 279.75L1024.25 304.75L980.95 279.75L980.95 229.75zM980.95 279.75L1024.25 304.75L1024.25 354.75L980.95 379.75L937.64 354.75L937.64 304.75zM1024.25 354.75L1067.55 379.75L1067.55 429.75L1024.25 454.75L980.95 429.75L980.95 379.75zM980.95 429.75L1024.25 454.75L1024.25 504.75L980.95 529.75L937.64 504.75L937.64 454.75zM1110.85 54.75L1154.15 79.75L1154.15 129.75L1110.85 154.75L1067.55 129.75L1067.55 79.75zM1067.55 129.75L1110.85 154.75L1110.85 204.75L1067.55 229.75L1024.25 204.75L1024.25 154.75zM1110.85 354.75L1154.15 379.75L1154.15 429.75L1110.85 454.75L1067.55 429.75L1067.55 379.75zM1067.55 429.75L1110.85 454.75L1110.85 504.75L1067.55 529.75L1024.25 504.75L1024.25 454.75zM1154.15 -20.25L1197.46 4.75L1197.46 54.75L1154.15 79.75L1110.85 54.75L1110.85 4.75zM1154.15 279.75L1197.46 304.75L1197.46 354.75L1154.15 379.75L1110.85 354.75L1110.85 304.75zM1154.15 429.75L1197.46 454.75L1197.46 504.75L1154.15 529.75L1110.85 504.75L1110.85 454.75zM1240.76 -20.25L1284.06 4.75L1284.06 54.75L1240.76 79.75L1197.46 54.75L1197.46 4.75zM1240.76 279.75L1284.06 304.75L1284.06 354.75L1240.76 379.75L1197.46 354.75L1197.46 304.75zM1284.06 354.75L1327.37 379.75L1327.37 429.75L1284.06 454.75L1240.76 429.75L1240.76 379.75zM1240.76 429.75L1284.06 454.75L1284.06 504.75L1240.76 529.75L1197.46 504.75L1197.46 454.75zM1284.06 504.75L1327.37 529.75L1327.37 579.75L1284.06 604.75L1240.76 579.75L1240.76 529.75zM1327.37 -20.25L1370.67 4.75L1370.67 54.75L1327.37 79.75L1284.06 54.75L1284.06 4.75zM1370.67 54.75L1413.97 79.75L1413.97 129.75L1370.67 154.75L1327.37 129.75L1327.37 79.75zM1370.67 204.75L1413.97 229.75L1413.97 279.75L1370.67 304.75L1327.37 279.75L1327.37 229.75zM1327.37 429.75L1370.67 454.75L1370.67 504.75L1327.37 529.75L1284.06 504.75L1284.06 454.75zM1413.97 279.75L1457.27 304.75L1457.27 354.75L1413.97 379.75L1370.67 354.75L1370.67 304.75zM1457.27 354.75L1500.58 379.75L1500.58 429.75L1457.27 454.75L1413.97 429.75L1413.97 379.75zM1413.97 429.75L1457.27 454.75L1457.27 504.75L1413.97 529.75L1370.67 504.75L1370.67 454.75zM1457.27 504.75L1500.58 529.75L1500.58 579.75L1457.27 604.75L1413.97 579.75L1413.97 529.75z" stroke="rgba(124, 173, 60, 1)" stroke-width="2"></path></g><defs><mask id="SvgjsMask1028"><rect width="1440" height="560" fill="#ffffff"></rect></mask></defs></svg>