<svg xmlns="http://www.w3.org/2000/svg" version="1.1" xmlnsXlink="http://www.w3.org/1999/xlink" xmlnsSvgjs="http://svgjs.dev/svgjs" width="1440" height="560" preserveAspectRatio="none" viewBox="0 0 1440 560"><g mask="url(&quot;#SvgjsMask1000&quot;)" fill="none"><rect width="1440" height="560" x="0" y="0" fill="rgba(23, 83, 56, 1)"></rect><path d="M181.13 -26.24L246.08 11.26L246.08 86.26L181.13 123.76L116.17 86.26L116.17 11.26zM246.08 86.26L311.03 123.76L311.03 198.76L246.08 236.26L181.13 198.76L181.13 123.76zM375.99 536.26L440.94 573.76L440.94 648.76L375.99 686.26L311.03 648.76L311.03 573.76zM505.9 536.26L570.85 573.76L570.85 648.76L505.9 686.26L440.94 648.76L440.94 573.76zM570.85 -26.24L635.8 11.26L635.8 86.26L570.85 123.76L505.9 86.26L505.9 11.26zM570.85 423.76L635.8 461.26L635.8 536.26L570.85 573.76L505.9 536.26L505.9 461.26zM700.76 198.76L765.71 236.26L765.71 311.26L700.76 348.76L635.8 311.26L635.8 236.26zM765.71 311.26L830.67 348.76L830.67 423.76L765.71 461.26L700.76 423.76L700.76 348.76zM765.71 536.26L830.67 573.76L830.67 648.76L765.71 686.26L700.76 648.76L700.76 573.76zM830.66 -26.24L895.62 11.26L895.62 86.26L830.66 123.76L765.71 86.26L765.71 11.26zM830.66 198.76L895.62 236.26L895.62 311.26L830.66 348.76L765.71 311.26L765.71 236.26zM895.62 536.26L960.57 573.76L960.57 648.76L895.62 686.26L830.66 648.76L830.66 573.76zM960.57 -26.24L1025.53 11.26L1025.53 86.26L960.57 123.76L895.62 86.26L895.62 11.26zM1025.53 86.26L1090.48 123.76L1090.48 198.76L1025.53 236.26L960.57 198.76L960.57 123.76zM960.57 198.76L1025.53 236.26L1025.53 311.26L960.57 348.76L895.62 311.26L895.62 236.26zM1025.53 311.26L1090.48 348.76L1090.48 423.76L1025.53 461.26L960.57 423.76L960.57 348.76zM960.57 423.76L1025.53 461.26L1025.53 536.26L960.57 573.76L895.62 536.26L895.62 461.26zM1155.43 86.26L1220.39 123.76L1220.39 198.76L1155.43 236.26L1090.48 198.76L1090.48 123.76zM1285.34 86.26L1350.29 123.76L1350.29 198.76L1285.34 236.26L1220.39 198.76L1220.39 123.76zM1220.39 423.76L1285.34 461.26L1285.34 536.26L1220.39 573.76L1155.43 536.26L1155.43 461.26zM1415.25 86.26L1480.2 123.76L1480.2 198.76L1415.25 236.26L1350.3 198.76L1350.3 123.76zM1350.3 198.76L1415.25 236.26L1415.25 311.26L1350.3 348.76L1285.34 311.26L1285.34 236.26zM1415.25 311.26L1480.2 348.76L1480.2 423.76L1415.25 461.26L1350.3 423.76L1350.3 348.76zM1350.3 423.76L1415.25 461.26L1415.25 536.26L1350.3 573.76L1285.34 536.26L1285.34 461.26zM1415.25 536.26L1480.2 573.76L1480.2 648.76L1415.25 686.26L1350.3 648.76L1350.3 573.76zM1545.16 86.26L1610.11 123.76L1610.11 198.76L1545.16 236.26L1480.2 198.76L1480.2 123.76zM1480.2 198.76L1545.16 236.26L1545.16 311.26L1480.2 348.76L1415.25 311.26L1415.25 236.26zM1545.16 311.26L1610.11 348.76L1610.11 423.76L1545.16 461.26L1480.2 423.76L1480.2 348.76zM1480.2 423.76L1545.16 461.26L1545.16 536.26L1480.2 573.76L1415.25 536.26L1415.25 461.26zM1545.16 536.26L1610.11 573.76L1610.11 648.76L1545.16 686.26L1480.2 648.76L1480.2 573.76z" stroke="rgba(5, 100, 67, 1)" stroke-width="2"></path><path d="M173.63 -26.24 a7.5 7.5 0 1 0 15 0 a7.5 7.5 0 1 0 -15 0zM238.58 11.26 a7.5 7.5 0 1 0 15 0 a7.5 7.5 0 1 0 -15 0zM238.58 86.26 a7.5 7.5 0 1 0 15 0 a7.5 7.5 0 1 0 -15 0zM173.63 123.76 a7.5 7.5 0 1 0 15 0 a7.5 7.5 0 1 0 -15 0zM108.67 86.26 a7.5 7.5 0 1 0 15 0 a7.5 7.5 0 1 0 -15 0zM108.67 11.26 a7.5 7.5 0 1 0 15 0 a7.5 7.5 0 1 0 -15 0zM303.53 123.76 a7.5 7.5 0 1 0 15 0 a7.5 7.5 0 1 0 -15 0zM303.53 198.76 a7.5 7.5 0 1 0 15 0 a7.5 7.5 0 1 0 -15 0zM238.58 236.26 a7.5 7.5 0 1 0 15 0 a7.5 7.5 0 1 0 -15 0zM173.63 198.76 a7.5 7.5 0 1 0 15 0 a7.5 7.5 0 1 0 -15 0zM368.49 536.26 a7.5 7.5 0 1 0 15 0 a7.5 7.5 0 1 0 -15 0zM433.44 573.76 a7.5 7.5 0 1 0 15 0 a7.5 7.5 0 1 0 -15 0zM433.44 648.76 a7.5 7.5 0 1 0 15 0 a7.5 7.5 0 1 0 -15 0zM368.49 686.26 a7.5 7.5 0 1 0 15 0 a7.5 7.5 0 1 0 -15 0zM303.53 648.76 a7.5 7.5 0 1 0 15 0 a7.5 7.5 0 1 0 -15 0zM303.53 573.76 a7.5 7.5 0 1 0 15 0 a7.5 7.5 0 1 0 -15 0zM498.4 536.26 a7.5 7.5 0 1 0 15 0 a7.5 7.5 0 1 0 -15 0zM563.35 573.76 a7.5 7.5 0 1 0 15 0 a7.5 7.5 0 1 0 -15 0zM563.35 648.76 a7.5 7.5 0 1 0 15 0 a7.5 7.5 0 1 0 -15 0zM498.4 686.26 a7.5 7.5 0 1 0 15 0 a7.5 7.5 0 1 0 -15 0zM563.35 -26.24 a7.5 7.5 0 1 0 15 0 a7.5 7.5 0 1 0 -15 0zM628.3 11.26 a7.5 7.5 0 1 0 15 0 a7.5 7.5 0 1 0 -15 0zM628.3 86.26 a7.5 7.5 0 1 0 15 0 a7.5 7.5 0 1 0 -15 0zM563.35 123.76 a7.5 7.5 0 1 0 15 0 a7.5 7.5 0 1 0 -15 0zM498.4 86.26 a7.5 7.5 0 1 0 15 0 a7.5 7.5 0 1 0 -15 0zM498.4 11.26 a7.5 7.5 0 1 0 15 0 a7.5 7.5 0 1 0 -15 0zM563.35 423.76 a7.5 7.5 0 1 0 15 0 a7.5 7.5 0 1 0 -15 0zM628.3 461.26 a7.5 7.5 0 1 0 15 0 a7.5 7.5 0 1 0 -15 0zM628.3 536.26 a7.5 7.5 0 1 0 15 0 a7.5 7.5 0 1 0 -15 0zM498.4 461.26 a7.5 7.5 0 1 0 15 0 a7.5 7.5 0 1 0 -15 0zM693.26 198.76 a7.5 7.5 0 1 0 15 0 a7.5 7.5 0 1 0 -15 0zM758.21 236.26 a7.5 7.5 0 1 0 15 0 a7.5 7.5 0 1 0 -15 0zM758.21 311.26 a7.5 7.5 0 1 0 15 0 a7.5 7.5 0 1 0 -15 0zM693.26 348.76 a7.5 7.5 0 1 0 15 0 a7.5 7.5 0 1 0 -15 0zM628.3 311.26 a7.5 7.5 0 1 0 15 0 a7.5 7.5 0 1 0 -15 0zM628.3 236.26 a7.5 7.5 0 1 0 15 0 a7.5 7.5 0 1 0 -15 0zM823.17 348.76 a7.5 7.5 0 1 0 15 0 a7.5 7.5 0 1 0 -15 0zM823.17 423.76 a7.5 7.5 0 1 0 15 0 a7.5 7.5 0 1 0 -15 0zM758.21 461.26 a7.5 7.5 0 1 0 15 0 a7.5 7.5 0 1 0 -15 0zM693.26 423.76 a7.5 7.5 0 1 0 15 0 a7.5 7.5 0 1 0 -15 0zM758.21 536.26 a7.5 7.5 0 1 0 15 0 a7.5 7.5 0 1 0 -15 0zM823.17 573.76 a7.5 7.5 0 1 0 15 0 a7.5 7.5 0 1 0 -15 0zM823.17 648.76 a7.5 7.5 0 1 0 15 0 a7.5 7.5 0 1 0 -15 0zM758.21 686.26 a7.5 7.5 0 1 0 15 0 a7.5 7.5 0 1 0 -15 0zM693.26 648.76 a7.5 7.5 0 1 0 15 0 a7.5 7.5 0 1 0 -15 0zM693.26 573.76 a7.5 7.5 0 1 0 15 0 a7.5 7.5 0 1 0 -15 0zM823.16 -26.24 a7.5 7.5 0 1 0 15 0 a7.5 7.5 0 1 0 -15 0zM888.12 11.26 a7.5 7.5 0 1 0 15 0 a7.5 7.5 0 1 0 -15 0zM888.12 86.26 a7.5 7.5 0 1 0 15 0 a7.5 7.5 0 1 0 -15 0zM823.16 123.76 a7.5 7.5 0 1 0 15 0 a7.5 7.5 0 1 0 -15 0zM758.21 86.26 a7.5 7.5 0 1 0 15 0 a7.5 7.5 0 1 0 -15 0zM758.21 11.26 a7.5 7.5 0 1 0 15 0 a7.5 7.5 0 1 0 -15 0zM823.16 198.76 a7.5 7.5 0 1 0 15 0 a7.5 7.5 0 1 0 -15 0zM888.12 236.26 a7.5 7.5 0 1 0 15 0 a7.5 7.5 0 1 0 -15 0zM888.12 311.26 a7.5 7.5 0 1 0 15 0 a7.5 7.5 0 1 0 -15 0zM823.16 348.76 a7.5 7.5 0 1 0 15 0 a7.5 7.5 0 1 0 -15 0zM888.12 536.26 a7.5 7.5 0 1 0 15 0 a7.5 7.5 0 1 0 -15 0zM953.07 573.76 a7.5 7.5 0 1 0 15 0 a7.5 7.5 0 1 0 -15 0zM953.07 648.76 a7.5 7.5 0 1 0 15 0 a7.5 7.5 0 1 0 -15 0zM888.12 686.26 a7.5 7.5 0 1 0 15 0 a7.5 7.5 0 1 0 -15 0zM823.16 648.76 a7.5 7.5 0 1 0 15 0 a7.5 7.5 0 1 0 -15 0zM823.16 573.76 a7.5 7.5 0 1 0 15 0 a7.5 7.5 0 1 0 -15 0zM953.07 -26.24 a7.5 7.5 0 1 0 15 0 a7.5 7.5 0 1 0 -15 0zM1018.03 11.26 a7.5 7.5 0 1 0 15 0 a7.5 7.5 0 1 0 -15 0zM1018.03 86.26 a7.5 7.5 0 1 0 15 0 a7.5 7.5 0 1 0 -15 0zM953.07 123.76 a7.5 7.5 0 1 0 15 0 a7.5 7.5 0 1 0 -15 0zM1082.98 123.76 a7.5 7.5 0 1 0 15 0 a7.5 7.5 0 1 0 -15 0zM1082.98 198.76 a7.5 7.5 0 1 0 15 0 a7.5 7.5 0 1 0 -15 0zM1018.03 236.26 a7.5 7.5 0 1 0 15 0 a7.5 7.5 0 1 0 -15 0zM953.07 198.76 a7.5 7.5 0 1 0 15 0 a7.5 7.5 0 1 0 -15 0zM1018.03 311.26 a7.5 7.5 0 1 0 15 0 a7.5 7.5 0 1 0 -15 0zM953.07 348.76 a7.5 7.5 0 1 0 15 0 a7.5 7.5 0 1 0 -15 0zM1082.98 348.76 a7.5 7.5 0 1 0 15 0 a7.5 7.5 0 1 0 -15 0zM1082.98 423.76 a7.5 7.5 0 1 0 15 0 a7.5 7.5 0 1 0 -15 0zM1018.03 461.26 a7.5 7.5 0 1 0 15 0 a7.5 7.5 0 1 0 -15 0zM953.07 423.76 a7.5 7.5 0 1 0 15 0 a7.5 7.5 0 1 0 -15 0zM1018.03 536.26 a7.5 7.5 0 1 0 15 0 a7.5 7.5 0 1 0 -15 0zM888.12 461.26 a7.5 7.5 0 1 0 15 0 a7.5 7.5 0 1 0 -15 0zM1147.93 86.26 a7.5 7.5 0 1 0 15 0 a7.5 7.5 0 1 0 -15 0zM1212.89 123.76 a7.5 7.5 0 1 0 15 0 a7.5 7.5 0 1 0 -15 0zM1212.89 198.76 a7.5 7.5 0 1 0 15 0 a7.5 7.5 0 1 0 -15 0zM1147.93 236.26 a7.5 7.5 0 1 0 15 0 a7.5 7.5 0 1 0 -15 0zM1277.84 86.26 a7.5 7.5 0 1 0 15 0 a7.5 7.5 0 1 0 -15 0zM1342.79 123.76 a7.5 7.5 0 1 0 15 0 a7.5 7.5 0 1 0 -15 0zM1342.79 198.76 a7.5 7.5 0 1 0 15 0 a7.5 7.5 0 1 0 -15 0zM1277.84 236.26 a7.5 7.5 0 1 0 15 0 a7.5 7.5 0 1 0 -15 0zM1212.89 423.76 a7.5 7.5 0 1 0 15 0 a7.5 7.5 0 1 0 -15 0zM1277.84 461.26 a7.5 7.5 0 1 0 15 0 a7.5 7.5 0 1 0 -15 0zM1277.84 536.26 a7.5 7.5 0 1 0 15 0 a7.5 7.5 0 1 0 -15 0zM1212.89 573.76 a7.5 7.5 0 1 0 15 0 a7.5 7.5 0 1 0 -15 0zM1147.93 536.26 a7.5 7.5 0 1 0 15 0 a7.5 7.5 0 1 0 -15 0zM1147.93 461.26 a7.5 7.5 0 1 0 15 0 a7.5 7.5 0 1 0 -15 0zM1407.75 86.26 a7.5 7.5 0 1 0 15 0 a7.5 7.5 0 1 0 -15 0zM1472.7 123.76 a7.5 7.5 0 1 0 15 0 a7.5 7.5 0 1 0 -15 0zM1472.7 198.76 a7.5 7.5 0 1 0 15 0 a7.5 7.5 0 1 0 -15 0zM1407.75 236.26 a7.5 7.5 0 1 0 15 0 a7.5 7.5 0 1 0 -15 0zM1342.8 198.76 a7.5 7.5 0 1 0 15 0 a7.5 7.5 0 1 0 -15 0zM1342.8 123.76 a7.5 7.5 0 1 0 15 0 a7.5 7.5 0 1 0 -15 0zM1407.75 311.26 a7.5 7.5 0 1 0 15 0 a7.5 7.5 0 1 0 -15 0zM1342.8 348.76 a7.5 7.5 0 1 0 15 0 a7.5 7.5 0 1 0 -15 0zM1277.84 311.26 a7.5 7.5 0 1 0 15 0 a7.5 7.5 0 1 0 -15 0zM1472.7 348.76 a7.5 7.5 0 1 0 15 0 a7.5 7.5 0 1 0 -15 0zM1472.7 423.76 a7.5 7.5 0 1 0 15 0 a7.5 7.5 0 1 0 -15 0zM1407.75 461.26 a7.5 7.5 0 1 0 15 0 a7.5 7.5 0 1 0 -15 0zM1342.8 423.76 a7.5 7.5 0 1 0 15 0 a7.5 7.5 0 1 0 -15 0zM1407.75 536.26 a7.5 7.5 0 1 0 15 0 a7.5 7.5 0 1 0 -15 0zM1342.8 573.76 a7.5 7.5 0 1 0 15 0 a7.5 7.5 0 1 0 -15 0zM1472.7 573.76 a7.5 7.5 0 1 0 15 0 a7.5 7.5 0 1 0 -15 0zM1472.7 648.76 a7.5 7.5 0 1 0 15 0 a7.5 7.5 0 1 0 -15 0zM1407.75 686.26 a7.5 7.5 0 1 0 15 0 a7.5 7.5 0 1 0 -15 0zM1342.8 648.76 a7.5 7.5 0 1 0 15 0 a7.5 7.5 0 1 0 -15 0zM1537.66 86.26 a7.5 7.5 0 1 0 15 0 a7.5 7.5 0 1 0 -15 0zM1602.61 123.76 a7.5 7.5 0 1 0 15 0 a7.5 7.5 0 1 0 -15 0zM1602.61 198.76 a7.5 7.5 0 1 0 15 0 a7.5 7.5 0 1 0 -15 0zM1537.66 236.26 a7.5 7.5 0 1 0 15 0 a7.5 7.5 0 1 0 -15 0zM1537.66 311.26 a7.5 7.5 0 1 0 15 0 a7.5 7.5 0 1 0 -15 0zM1602.61 348.76 a7.5 7.5 0 1 0 15 0 a7.5 7.5 0 1 0 -15 0zM1602.61 423.76 a7.5 7.5 0 1 0 15 0 a7.5 7.5 0 1 0 -15 0zM1537.66 461.26 a7.5 7.5 0 1 0 15 0 a7.5 7.5 0 1 0 -15 0zM1537.66 536.26 a7.5 7.5 0 1 0 15 0 a7.5 7.5 0 1 0 -15 0zM1602.61 573.76 a7.5 7.5 0 1 0 15 0 a7.5 7.5 0 1 0 -15 0zM1602.61 648.76 a7.5 7.5 0 1 0 15 0 a7.5 7.5 0 1 0 -15 0zM1537.66 686.26 a7.5 7.5 0 1 0 15 0 a7.5 7.5 0 1 0 -15 0z" fill="rgba(5, 100, 67, 1)"></path><path d="M30.49 116.48L73.79 141.48L73.79 191.48L30.49 216.48L-12.81 191.48L-12.81 141.48zM117.09 116.48L160.4 141.48L160.4 191.48L117.09 216.48L73.79 191.48L73.79 141.48zM247 191.48L290.31 216.48L290.31 266.48L247 291.48L203.7 266.48L203.7 216.48zM203.7 416.48L247 441.48L247 491.48L203.7 516.48L160.4 491.48L160.4 441.48zM290.31 116.48L333.61 141.48L333.61 191.48L290.31 216.48L247 191.48L247 141.48zM376.91 -33.52L420.21 -8.52L420.21 41.48L376.91 66.48L333.61 41.48L333.61 -8.52zM463.52 -33.52L506.82 -8.52L506.82 41.48L463.52 66.48L420.21 41.48L420.21 -8.52zM506.82 41.48L550.12 66.48L550.12 116.48L506.82 141.48L463.52 116.48L463.52 66.48zM463.52 116.48L506.82 141.48L506.82 191.48L463.52 216.48L420.21 191.48L420.21 141.48zM506.82 491.48L550.12 516.48L550.12 566.48L506.82 591.48L463.52 566.48L463.52 516.48zM550.12 -33.52L593.42 -8.52L593.42 41.48L550.12 66.48L506.82 41.48L506.82 -8.52zM550.12 416.48L593.42 441.48L593.42 491.48L550.12 516.48L506.82 491.48L506.82 441.48zM636.73 116.48L680.03 141.48L680.03 191.48L636.73 216.48L593.42 191.48L593.42 141.48zM680.03 191.48L723.33 216.48L723.33 266.48L680.03 291.48L636.73 266.48L636.73 216.48zM636.73 416.48L680.03 441.48L680.03 491.48L636.73 516.48L593.42 491.48L593.42 441.48zM723.33 266.48L766.63 291.48L766.63 341.48L723.33 366.48L680.03 341.48L680.03 291.48zM809.94 -33.52L853.24 -8.52L853.24 41.48L809.94 66.48L766.63 41.48L766.63 -8.52zM809.94 116.48L853.24 141.48L853.24 191.48L809.94 216.48L766.63 191.48L766.63 141.48zM809.94 266.48L853.24 291.48L853.24 341.48L809.94 366.48L766.63 341.48L766.63 291.48zM809.94 416.48L853.24 441.48L853.24 491.48L809.94 516.48L766.63 491.48L766.63 441.48zM896.54 116.48L939.84 141.48L939.84 191.48L896.54 216.48L853.24 191.48L853.24 141.48zM1026.45 191.48L1069.75 216.48L1069.75 266.48L1026.45 291.48L983.15 266.48L983.15 216.48zM1113.05 191.48L1156.36 216.48L1156.36 266.48L1113.05 291.48L1069.75 266.48L1069.75 216.48zM1156.36 416.48L1199.66 441.48L1199.66 491.48L1156.36 516.48L1113.05 491.48L1113.05 441.48zM1286.26 41.48L1329.57 66.48L1329.57 116.48L1286.26 141.48L1242.96 116.48L1242.96 66.48zM1242.96 116.48L1286.26 141.48L1286.26 191.48L1242.96 216.48L1199.66 191.48L1199.66 141.48zM1286.26 341.48L1329.57 366.48L1329.57 416.48L1286.26 441.48L1242.96 416.48L1242.96 366.48zM1372.87 41.48L1416.17 66.48L1416.17 116.48L1372.87 141.48L1329.57 116.48L1329.57 66.48zM1329.57 116.48L1372.87 141.48L1372.87 191.48L1329.57 216.48L1286.26 191.48L1286.26 141.48z" stroke="rgba(9, 128, 70, 0.93)" stroke-width="2"></path></g><defs><mask id="SvgjsMask1000"><rect width="1440" height="560" fill="#ffffff"></rect></mask></defs></svg>